PathFileType	4	(X/Y/Z)	S01_0015_Gait_markers.trc
DataRate	CameraRate	NumFrames	NumMarkers	Units	OrigDataRate	OrigDataStartFrame	OrigNumFrames
250.000000	250.000000	4	54	mm	250.000000	44	358
Frame#	Time	HEAD_ANT			R_HEAD			L_HEAD			C7			R_BACK			L_BACK			STERNUM			R_ACROMION			R_HUM_PROX			R_HUM_ANT			R_HUM_POST			R_ELBOW_LAT			R_ELBOW_MED			R_FOREARM			R_WIRST_LAT			R_WRITS_MED			R_HAND			L_ACROMION			L_HUM_PROX			L_HUM_ANT			L_HUM_POST			L_ELBOW_LAT			L_ELBOW_MED			L_FOREARM			L_WRIST_LAT			L_WIRST_MED			L_HAND			R_ILIAC			SACRUM			L_ILIAC			R_GTROCH			R_THIGH__1			R_THIGH_2			R_THIGH_3			R_THIGH_4			R_SHANK_1			R_SHANK_2			R_SHANK_3			R_SHANK_4			R_HEEL			R_FOOT_LAT			R_FOOT_MED			L_GTROCH			L_THIGH_1			L_THIGH_2			L_THIGH_3			L_THIGH_4			L_SHANK_1			L_SHANK_2			L_SHANK_3			L_SHANK_4			L_HEEL			L_FOOT_LAT			L_FOOT_MED			
		X1	Y1	Z1	X2	Y2	Z2	X3	Y3	Z3	X4	Y4	Z4	X5	Y5	Z5	X6	Y6	Z6	X7	Y7	Z7	X8	Y8	Z8	X9	Y9	Z9	X10	Y10	Z10	X11	Y11	Z11	X12	Y12	Z12	X13	Y13	Z13	X14	Y14	Z14	X15	Y15	Z15	X16	Y16	Z16	X17	Y17	Z17	X18	Y18	Z18	X19	Y19	Z19	X20	Y20	Z20	X21	Y21	Z21	X22	Y22	Z22	X23	Y23	Z23	X24	Y24	Z24	X25	Y25	Z25	X26	Y26	Z26	X27	Y27	Z27	X28	Y28	Z28	X29	Y29	Z29	X30	Y30	Z30	X31	Y31	Z31	X32	Y32	Z32	X33	Y33	Z33	X34	Y34	Z34	X35	Y35	Z35	X36	Y36	Z36	X37	Y37	Z37	X38	Y38	Z38	X39	Y39	Z39	X40	Y40	Z40	X41	Y41	Z41	X42	Y42	Z42	X43	Y43	Z43	X44	Y44	Z44	X45	Y45	Z45	X46	Y46	Z46	X47	Y47	Z47	X48	Y48	Z48	X49	Y49	Z49	X50	Y50	Z50	X51	Y51	Z51	X52	Y52	Z52	X53	Y53	Z53	X54	Y54	Z54	

45	0.176	323.880126953125	1713.481689453125	-329.2624511718746	265.5580749511719	1663.628173828125	-251.2848052978512	267.3351440429688	1661.556030273438	-399.0872192382809	132.7441711425781	1491.859252929688	-330.6229553222653	55.62784194946289	1294.665771484375	-271.5301513671872	64.81960296630859	1301.564453125	-411.0363159179685	308.27099609375	1327.90283203125	-318.2177124023435	198.4036254882812	1440.031616210938	-151.5637817382809	144.0474243164062	1278.042358398438	-69.04747772216768	199.2250823974609	1188.971069335938	-62.01249694824192	78.05744934082031	1198.296997070312	-67.1010437011716	115.968620300293	1090.212036132812	-59.7250595092771	108.384880065918	1088.54833984375	-139.9624786376951	191.0858764648438	898.4979858398438	-40.76613616943339	228.2505340576172	827.5851440429688	-73.03574371337872	152.5596618652344	812.706298828125	-51.15750122070295	209.1605529785156	740.4235229492188	-19.21784782409652	223.9456024169922	1448.554809570312	-491.961761474609	216.5071868896484	1285.302001953125	-591.4534912109372	281.9539184570312	1207.427490234375	-585.3505249023435	164.2202758789062	1206.036010742188	-623.8922729492185	229.2488403320312	1104.657348632813	-630.3588256835935	170.6509399414062	1092.744140625	-579.1684570312498	359.2109985351562	949.0712890625001	-590.593566894531	396.865966796875	899.1289672851564	-532.5725097656248	361.3419799804688	864.1128540039064	-596.1263427734373	446.6705627441406	829.1082763671876	-573.9520874023435	197.8340148925781	1040.662841796875	-163.9412994384763	76.14919281005859	1015.257995605469	-329.7196960449216	193.8443603515625	1041.069946289062	-507.4298095703123	169.5086059570312	890.10546875	-150.9431457519529	293.7128295898438	627.3353881835938	-171.5505981445311	340.9912414550781	661.99853515625	-166.1387329101561	380.6476440429688	569.4512329101562	-206.039093017578	318.5592651367188	552.005126953125	-195.4050140380858	379.0842895507812	335.7356262207032	-189.9663696289062	437.7586059570312	333.0914611816407	-205.069610595703	459.8532104492188	251.2930603027344	-222.6657714843749	397.5545959472656	237.3834838867188	-212.1292572021484	427.7462768554688	28.47585296630866	-300.2131652832031	587.027099609375	49.10994720458989	-211.594970703125	634.07861328125	82.38829803466804	-298.5569763183594	147.45458984375	935.9099121093751	-509.4981384277341	153.3851470947266	643.8965454101564	-498.3527526855467	107.9034042358398	678.3227539062501	-512.9888916015624	65.14993286132812	584.5664672851564	-484.2556152343749	126.9886779785156	569.6915283203126	-475.9108886718749	-29.83271408081055	330.4997863769532	-468.0677490234374	-89.77763366699219	338.9524536132814	-475.8386230468749	-133.8445281982422	265.6203918457032	-457.7985534667968	-76.02999877929688	241.1746520996095	-444.2937011718749	-265.4490966796875	124.6623001098634	-389.7430725097656	-114.9838790893555	22.02964210510264	-444.6234436035156	-80.55390167236328	27.28392410278328	-337.3377990722656	
46	0.18	329.4690246582031	1713.07666015625	-328.2229614257809	271.173583984375	1663.086791992188	-250.3512420654293	273.175048828125	1661.130004882812	-398.210052490234	138.5644836425781	1491.219970703125	-329.7617797851559	61.65398406982422	1293.91552734375	-270.8781127929685	70.81577301025391	1301.046875	-410.5439453124997	314.28857421875	1327.531127929688	-317.510803222656	204.27392578125	1439.431274414062	-150.7267150878903	149.7334442138672	1277.193969726562	-69.02243041992159	205.3758697509766	1188.134887695312	-61.57698440551732	84.17255401611328	1197.407836914062	-66.63779449462864	122.0323944091797	1089.461181640625	-59.52942657470679	114.4663543701172	1087.879516601562	-139.7474060058591	196.9623413085938	897.62744140625	-40.65178298950175	233.9933776855469	826.3989868164062	-72.87538909912091	158.2159576416016	812.0179443359375	-51.13543701171857	214.8683166503906	739.3352661132812	-19.36529541015609	229.9235534667969	1448.154418945312	-491.1707153320309	221.9715881347656	1284.938110351563	-590.7321166992184	287.2680358886719	1206.98779296875	-584.9992675781248	169.5824890136719	1205.7841796875	-623.0148315429685	234.4607086181641	1104.379272460938	-629.7194824218748	175.9298400878906	1092.580688476563	-578.3607788085935	364.1814880371094	948.3608398437501	-590.4476928710935	402.3378295898438	898.2965698242189	-532.655578613281	366.0926208496094	863.5638427734376	-596.0753784179685	451.3689880371094	828.1397705078126	-574.1215820312498	203.6064300537109	1040.291015625	-163.5931396484373	82.42295837402344	1014.767883300781	-329.5877685546873	200.0825805664062	1040.511962890625	-507.1000671386716	176.1155548095703	889.6107177734375	-150.578170776367	300.3253784179688	627.3139038085938	-172.1434783935545	347.7062377929688	661.9143676757812	-166.1933441162108	387.4270324707031	569.3991088867188	-205.9817810058593	325.2317810058594	551.8310546875	-195.5192413330077	384.295654296875	335.4085693359376	-190.3886260986327	442.937744140625	332.2051391601563	-205.924835205078	463.9659423828125	250.1779327392579	-223.6580200195312	401.5955505371094	237.0451354980469	-212.9298706054687	429.2250366210938	29.88071632385261	-301.1874694824219	588.0713500976562	44.79880142211919	-212.1574249267578	637.0838623046875	76.5706863403321	-299.0256652832031	153.7318725585938	935.0338745117189	-509.2189941406248	160.0737609863281	643.1685791015626	-497.8724975585936	114.535400390625	677.5571899414064	-512.6666259765624	71.85507202148438	583.8254394531251	-484.2117919921874	133.5955810546875	568.9031982421876	-475.8359374999999	-25.13103866577148	330.536346435547	-468.7135620117187	-84.77495574951172	339.5747680664064	-475.9913635253906	-129.7747650146484	267.0369262695314	-458.2514953613281	-72.55179595947266	241.8471069335938	-444.7093200683593	-262.7601013183594	126.9694900512696	-392.1714782714844	-114.4077682495117	21.97760772705088	-443.4336242675781	-80.37657165527344	27.44997215271004	-337.5758361816406	
47	0.184	335.205322265625	1712.737915039062	-327.2084045410152	276.8428649902344	1662.514404296875	-249.4997711181637	278.8133239746094	1660.789428710938	-397.1546630859372	144.1803283691406	1490.755981445312	-328.960784912109	67.82443237304688	1293.268798828125	-270.3201599121091	76.74269104003906	1300.705810546875	-409.9577941894528	320.33544921875	1327.261840820312	-316.8683471679685	210.1773376464844	1438.7666015625	-149.9457092285153	155.8185577392578	1276.500122070312	-68.43789672851534	211.4876708984375	1187.285766601562	-61.20789718627903	90.28349304199219	1196.575927734375	-66.15637969970676	128.2436981201172	1088.650390625	-59.18025207519507	120.6332244873047	1087.175048828125	-139.3637237548826	202.8970794677734	896.8098754882812	-40.40565872192363	239.8120269775391	825.590087890625	-72.910690307617	163.9662933349609	811.1851196289062	-50.98453903198224	220.1632537841797	738.4267578125	-19.50928497314437	235.8698883056641	1447.885498046875	-490.3422851562497	227.4625396728516	1284.620483398438	-590.1566162109372	292.7669982910156	1206.58544921875	-584.548156738281	174.8348999023438	1205.585083007813	-622.325500488281	239.7779998779297	1103.964233398438	-628.9252319335935	181.4744873046875	1092.244262695313	-577.5668945312498	369.2914733886719	947.7903442382814	-590.2130737304685	407.1105346679688	897.6132812500001	-532.7128906249998	370.9601745605469	862.9302978515626	-595.9320068359373	456.16943359375	827.3225097656251	-574.3319091796873	209.4966583251953	1039.97998046875	-163.1673278808591	88.65836334228516	1014.403015136719	-329.4855957031248	206.5240783691406	1039.98095703125	-506.7978820800779	182.4683685302734	889.3839721679688	-150.2110290527342	307.0605163574219	627.6298828125	-172.3588562011717	354.442138671875	661.9795532226562	-166.6405639648436	393.9393920898438	569.2621459960938	-206.2382202148436	331.651611328125	551.9832763671875	-195.8145599365233	389.6182250976562	335.9286804199219	-191.1788482666015	448.1820678710938	332.0471191406251	-206.6107635498046	468.348876953125	249.7748565673829	-223.8780517578124	405.7140197753906	237.2937469482422	-213.3407135009765	430.4669799804688	30.93331909179694	-301.3711853027344	589.5543823242188	41.0283927917481	-212.7866363525391	639.801513671875	70.93685150146491	-300.3258361816406	160.0906219482422	934.3890991210939	-508.9014892578123	166.7510681152344	642.4915161132814	-497.5501403808592	121.3344802856445	676.9558715820314	-512.4287109374999	78.58248138427734	583.0666503906251	-484.0477600097655	140.3762359619141	568.1624755859376	-475.3554077148436	-20.28997230529785	330.7153320312501	-468.9661254882812	-79.88981628417969	340.6861267089845	-476.6109008789062	-125.8534164428711	268.1465454101564	-458.7020874023437	-68.77224731445312	242.5299530029298	-445.3196716308593	-260.671630859375	131.0162506103516	-391.5781860351562	-114.0196380615234	22.30402374267588	-443.4176940917969	-80.17822265625	27.61341857910164	-337.705810546875	
48	0.188	340.8458862304688	1712.576904296875	-326.1907043457027	282.5381164550781	1662.110595703125	-248.5606536865231	284.2579040527344	1660.440673828125	-396.1544494628903	149.9423522949219	1490.317260742188	-328.0257873535153	73.93824005126953	1292.799682617188	-269.8476562499997	82.70046234130859	1300.552001953125	-409.209777832031	326.4268188476562	1327.00244140625	-316.1433410644528	216.1048126220703	1438.1552734375	-149.1431274414059	161.8172607421875	1275.741333007812	-67.85582733154268	217.5417327880859	1186.692504882812	-60.76525497436497	96.32726287841797	1195.806762695312	-65.56108093261692	134.4119720458984	1087.847290039062	-58.81747055053687	126.7434768676758	1086.53955078125	-139.043991088867	208.8411560058594	895.839599609375	-40.32967758178691	245.6458282470703	824.7777099609375	-72.57331848144513	169.7374725341797	810.481201171875	-51.06459426879865	225.9669036865234	737.4827270507812	-19.63023948669417	241.681884765625	1447.622436523438	-489.5691528320309	233.1628265380859	1284.492065429688	-589.5032348632809	298.3705139160156	1206.29345703125	-583.9039306640623	180.2866668701172	1205.423095703125	-621.394348144531	244.8706512451172	1103.694580078125	-628.3271484374998	186.7308959960938	1092.076538085938	-576.7968749999998	374.1365051269531	947.1481323242189	-590.1076049804685	412.2634582519531	896.6791381835939	-532.7996826171873	375.5602722167969	862.3463745117189	-596.000793457031	460.8051452636719	826.3808593750001	-574.5025634765623	215.6372985839844	1039.790771484375	-162.727355957031	94.92845916748047	1014.351013183594	-329.2855834960935	212.775146484375	1039.464721679688	-506.6693115234373	189.1950225830078	889.2389526367188	-149.482955932617	313.5941162109375	628.1041870117188	-172.9029693603514	361.1768493652344	662.3630981445312	-167.256149291992	400.2961730957031	569.3954467773438	-206.4231719970702	338.0048217773438	552.300537109375	-195.7575531005858	394.7928466796875	336.3377075195313	-191.6920471191405	453.6111755371094	332.0818481445313	-206.2982330322265	473.1497497558594	249.6337127685547	-223.9081878662109	410.2491455078125	237.6344909667969	-213.9949645996093	431.5539245605469	31.84828186035163	-301.3079833984375	591.2823486328125	38.22783660888677	-213.2956085205078	641.9921875	66.66900634765632	-301.3493347167969	166.5377044677734	933.8389892578126	-508.5758666992185	173.6472778320312	641.7911376953126	-497.1705322265623	128.2108459472656	676.3121948242189	-512.5438842773436	85.45590972900391	582.1887207031251	-483.8355102539061	147.2984313964844	567.4753417968751	-475.4794311523436	-15.09483528137207	330.7727355957032	-469.2822570800781	-74.56919860839844	341.1978759765626	-476.8176269531249	-121.7359771728516	269.6610717773439	-459.1979370117187	-64.98318481445312	242.9548645019532	-445.9946899414062	-258.0227966308594	134.5249328613282	-392.7336120605468	-113.5547485351562	22.65030479431162	-443.4164733886719	-80.02628326416016	27.8723506927491	-337.2048645019531	
